<?xml version="1.0" encoding="UTF-8"?>
<svg width="580" height="400" xmlns="http://www.w3.org/2000/svg">
 <!-- Created with Method Draw - http://github.com/duopixel/Method-Draw/ -->
 <g>
  <title>background</title>
  <rect fill="#fff" id="canvas_background" height="402" width="582" y="-1" x="-1"/>
 </g>
 <g>
  <title>Layer 1</title>
  <rect stroke="#000000" id="svg_1" height="452.000016" width="647.000025" y="-16.885434" x="-38.500025" opacity="0.5" stroke-opacity="null" stroke-width="6.5" fill="#45e8e8"/>
  <path id="svg_2" d="m463.543538,364.238964c0.774295,-9.432896 2.589398,-19.178854 6.640689,-27.273264c3.871451,-5.315697 10.12006,-5.156761 15.338689,-6.975332c-7.312005,-2.250655 -14.137429,-6.235687 -20.834426,-10.452107c-10.961707,-5.461287 -22.119565,2.407616 -32.000282,7.928097c-7.336222,4.023651 -14.593104,8.770483 -22.49269,10.762939c-5.182028,-4.132704 -0.854176,-15.857288 2.789816,-20.807756c4.613747,-6.836717 11.443176,-10.368741 16.444999,-16.611752c2.20039,-8.818064 -7.938176,-10.987548 -12.49308,-14.452325c-7.063386,-3.670875 -13.064937,-9.683368 -18.434705,-16.39639c12.470378,-0.834104 23.50154,8.05433 34.753781,13.451033c6.086163,2.528826 11.826386,6.085566 17.517032,9.603817c2.60908,-0.015121 11.462548,2.208114 10.580198,-1.206745c-6.636427,-0.337767 -5.971228,-10.192092 -1.505233,-14.099005c6.564127,-5.929144 14.566501,-9.429512 20.031173,-17.283116c2.397412,-2.209049 3.659025,-7.612508 5.685214,-9.317477c8.736781,7.837667 13.848421,20.201165 18.668735,31.92553c7.84923,2.03559 15.776393,3.686682 23.776773,4.185007c7.812789,4.100338 14.483668,11.246492 20.600783,18.503739c4.635398,4.014073 5.870743,14.93667 -0.430226,17.127901c-15.545682,9.611283 -32.903922,12.549411 -50.022829,13.47307c-2.411837,-0.1952 -4.511887,0.108687 -4.528048,3.748355c-1.507841,5.183655 -2.124225,11.207441 -4.96282,15.428067c-3.132751,-0.919653 -0.164904,-11.512156 -3.382267,-6.479339c-6.32851,7.885408 -13.940253,13.799188 -21.741282,19.087678c0,-1.2902 -0.00001,-2.580495 0.00001,-3.870619l0,-0.000006z" stroke-opacity="null" stroke="#000000" fill="#7AD6CA"/>
 </g>
</svg>
