<?xml version="1.0" encoding="UTF-8"?>
<svg width="580" height="400" xmlns="http://www.w3.org/2000/svg">
 <!-- Created with Method Draw - http://github.com/duopixel/Method-Draw/ -->
 <g>
  <title>background</title>
  <rect fill="#fff" id="canvas_background" height="402" width="582" y="-1" x="-1"/>
  <g display="none" overflow="visible" y="0" x="0" height="100%" width="100%" id="canvasGrid">
   <rect fill="url(#gridpattern)" stroke-width="0" y="0" x="0" height="100%" width="100%"/>
  </g>
 </g>
 <g>
  <title>Layer 1</title>
  <rect id="svg_5" height="329" width="649" y="-5.21875" x="-2.5" stroke-opacity="null" stroke-width="1.5" stroke="#000" fill="#CBFFFF"/>
  <rect id="svg_1" height="78" width="628" y="332.78125" x="-20.5" stroke-width="1.5" stroke="#000" fill="#482816"/>
  <rect id="svg_3" height="32" width="656" y="302.78125" x="-29.5" stroke-opacity="null" stroke-width="1.5" stroke="#000" fill="#46673D"/>
  <path id="svg_4" d="m222.884932,158.763833c-0.72862,0 -1.10313,-0.843625 -1.10313,-1.855282c0,-0.843429 0.187227,-1.662302 0.72862,-1.662302c0.37451,0 0.938287,0.818874 1.125513,1.662302c0.37451,1.228016 0,1.855282 -0.751003,1.855282zm124.549924,48.136166c1.666963,0 2.041417,0.216359 1.10313,1.662106c-0.541393,1.011657 -1.666907,1.855086 -2.2083,1.855086c-0.56372,0 -1.125513,-0.843429 -1.125513,-1.855086c0,-1.036474 0.75106,-1.662106 2.230683,-1.662106zm-116.380235,-58.881375c-1.666907,-0.409339 -1.85419,-2.482155 0,-3.107984c0.93823,-0.192718 1.47968,0.409273 1.47968,1.662302c0,1.036343 -0.54145,1.638596 -1.47968,1.445682zm-20.778362,65.48193c2.230683,-0.602318 2.230683,-1.035233 1.47968,-2.457404c-0.561793,-1.035233 -0.74902,-2.288131 -0.37451,-2.697535c0.187227,-0.626939 1.125513,0 1.666907,1.228147c0.751003,1.662302 1.31274,1.879967 2.79242,0.843429c0.917943,-0.625763 1.666907,-1.036212 1.666907,-0.409273c0,0.409273 0.563777,0 1.292397,-0.843429c1.12557,-1.228147 1.312797,-3.926792 0.187283,-5.372604c-0.915903,-1.228147 -5.564496,-0.818743 -6.856893,0.625763c-0.74902,1.036539 -1.312797,0.820049 -2.041417,-1.035037c-1.125513,-3.084539 -1.125513,-3.517584 1.479623,-3.710302c2.230683,0 2.230683,0 0.37451,-1.252898c-0.936247,-0.602318 -1.854133,-1.855086 -1.854133,-2.673959c0,-2.072686 2.584793,-3.300833 3.710306,-1.855021c0.37451,0.602188 1.103187,1.228147 1.85419,1.228147c1.47968,0 8.544143,-7.010221 8.544143,-8.456033c0,-0.626874 0.73066,-1.036147 1.47968,-0.626874c0.917887,0.2176 2.58485,-0.409273 4.27414,-1.445812c2.395526,-1.662172 2.395526,-1.855086 1.10313,-4.552621c-0.915903,-1.855086 -2.041417,-2.482155 -4.64661,-2.482155c-2.959303,0 -3.710306,0.409469 -4.62621,2.891625c-0.37655,1.662106 -1.502007,2.890319 -2.230683,2.890319c-1.292397,0 -1.666907,-1.853976 -0.37451,-2.890319c0.561737,-0.409469 0.936247,-1.855086 0.936247,-3.300898c0,-2.264621 -0.37451,-2.673959 -2.79242,-2.071576c-2.41791,0.409273 -2.41791,0.216359 -1.85419,-2.891755c0.37451,-1.855021 0.915903,-3.517192 1.292453,-3.710106c0.37451,-0.216359 0.748963,-2.071576 0.748963,-3.926661c0,-3.710498 1.10517,-4.336261 3.148626,-1.662302c0.93619,1.445747 1.500023,1.662302 1.854133,0.409273c0.37451,-0.818743 1.68725,-1.011657 3.730706,-0.602384c2.772076,0.818874 2.959303,0.602384 2.584793,-1.855086c-0.187227,-1.445616 -0.376493,-3.107919 -0.56372,-3.517192c0,-0.625959 -0.915903,-1.445812 -2.021073,-2.071772c-2.230683,-1.036147 -2.79242,-3.517192 -0.751003,-3.517192c0.563777,0 1.105113,-0.409469 1.105113,-1.229453c0,-0.625959 1.12557,-1.035233 2.605193,-0.843559c2.043457,0.2176 3.146586,-0.602057 5.939006,-4.938123c2.043457,-3.108114 3.52308,-4.770286 3.710363,-3.926857c0.187227,1.035233 1.125513,1.63742 2.0434,1.63742c1.47968,0 1.666963,-0.602188 1.12557,-3.299723c-0.189267,-1.855216 -1.12557,-4.119576 -1.68929,-5.156115c-1.666963,-2.289045 -1.666963,-4.963004 0,-4.144457c1.31274,0.820049 5.397556,-1.444506 5.397556,-2.890253c0,-0.626939 0.543433,-1.036343 1.292397,-1.036343c0.75106,0 1.10517,1.252833 1.10517,2.891559c0,2.071576 0.37451,2.890449 1.312797,2.288065c0.72862,-0.43298 1.292453,-1.662302 1.292453,-2.48098c0,-2.482286 5.93895,-6.818417 7.418573,-5.589159c0.563833,0.4096 1.125513,0 1.314893,-1.445616c0.541337,-2.891559 3.895493,-5.156115 5.375116,-3.710302c0.75106,0.602188 1.479737,0.409469 1.669003,-0.216359c0.374453,-0.819984 1.854133,-1.445812 3.52104,-1.638857c1.666907,-0.216359 3.89759,-1.036343 4.835876,-1.879772c3.52104,-2.673959 7.044176,-2.481045 8.523799,0.41071c0.938287,2.071445 1.31274,2.071445 1.31274,0.625633c0,-1.855216 0.730717,-2.071576 5.190043,-1.445616c7.064519,0.819984 8.169689,0.819984 10.774883,-0.216555c1.666907,-0.602318 2.230627,-0.409404 2.230627,1.252702c0,1.036539 0.54145,1.855282 1.292453,1.855282c0.561737,0 1.10313,-0.602384 1.10313,-1.229323c0,-1.662106 2.981743,-2.48098 5.58688,-1.662106c2.021073,0.819984 2.2083,1.036147 1.666907,6.601666c-0.187227,3.324474 0,5.589029 0.354167,5.589029c0.374453,0 0.751003,-1.445812 0.751003,-3.517388c0,-3.493812 2.041417,-4.938449 2.79242,-2.071641c0.187283,1.035298 0.72862,0.625829 1.10313,-1.011592c0.938343,-4.337372 2.981743,-2.072882 2.41791,2.673959c-0.56168,3.926661 -0.56168,3.926661 1.105227,2.480849c0.93823,-0.625829 1.66685,-2.264359 1.66685,-3.299723c0,-1.036408 0.563833,-2.265665 1.312853,-2.69871c1.479567,-0.818547 3.14857,2.288261 2.605136,4.553731c-0.187227,1.035429 -0.187227,1.855216 0.35411,1.855216c0.37655,0 0.75106,-0.602188 0.75106,-1.036343c0,-0.602318 0.917887,-0.818874 2.0434,-0.409273c2.415926,0.625829 2.770036,2.287935 0.728677,3.299592c-0.541393,0.434155 -1.10517,1.445812 -1.10517,2.289372c0,1.445812 0.376493,1.445812 2.41791,0c3.333813,-2.48098 4.813436,-2.289372 5.37727,0.409273c0.374453,1.445812 1.105113,2.072751 1.854133,1.445812c0.751003,-0.21649 2.41791,0.626939 3.710363,2.071576c1.125513,1.229257 2.79242,2.264555 3.543423,2.264555c1.10517,0 1.10517,1.036474 0.72862,3.927902c-0.374453,3.108114 -0.374453,3.517388 0.75106,2.264686c1.479623,-2.048196 2.041417,-1.855412 2.58485,1.035037c0.187227,1.445812 1.499967,2.482155 2.979646,3.107984c1.666907,0.41071 2.58485,1.445747 2.58485,2.67507c0,1.252833 0.56168,2.697535 1.125513,3.517519c1.47968,1.445616 1.10313,5.781747 -0.563833,7.227494c-0.56168,0.433045 -1.29234,0.216555 -1.479623,-0.409273c-0.374453,-0.627069 -1.666907,-0.627069 -4.084873,0c-3.89759,1.444506 -4.62621,1.855086 -3.710306,3.733747c0.563777,1.228147 7.046159,0.818874 10.587599,-0.626939c1.10517,-0.625894 1.47968,0 1.47968,2.891625c0,2.071445 -0.37451,3.710302 -0.936247,3.710302c-0.37655,0 -0.73066,0.625763 -0.73066,1.662106c0,2.482025 0.917943,2.264359 3.335853,-0.625959c1.290357,-1.662106 2.04136,-2.072686 2.959303,-1.036147c0.936247,1.036147 1.125513,1.036147 1.125513,-0.625959c0,-1.012898 -0.37655,-1.855086 -0.93823,-1.855086c-0.354167,0 -0.730717,-0.819984 -0.730717,-1.638857c0,-1.036212 0.543433,-1.855086 1.292397,-1.855086c0.563777,0 1.312797,0.409273 1.312797,1.011657c0,0.6272 0.73066,1.445747 1.668947,1.662302c1.290413,0.627069 1.666907,1.445812 1.479623,3.926792c-0.376493,4.746515 0.374567,6.192457 3.146586,5.373715c1.312797,-0.41071 2.04136,0 1.47968,0.818743c-0.166883,0.409273 0,1.445812 0.37451,1.878531c1.502007,1.229388 0.93823,4.119902 -0.728677,4.119902c-2.0434,0 -2.605193,1.036147 -1.499967,2.891429c0.748963,1.036343 1.31274,1.228147 2.04136,0.409404c1.68929,-2.071576 2.043457,-0.409404 2.230683,7.85476c0,4.143021 0.37451,7.444049 0.74902,7.444049c0.917887,0 0.563777,4.553731 -0.74902,6.408817c-0.73066,1.035233 -0.73066,2.046825 -0.187227,2.890253c1.31274,1.855282 0,7.227886 -1.669003,7.227886c-1.479567,0 -4.272043,3.926661 -4.272043,5.781878c0,2.265796 -2.395526,0 -2.959303,-2.481045c-0.561737,-2.26449 -0.561737,-2.26449 -0.938287,-0.626939c-0.35411,1.879837 1.668947,7.661715 3.356253,9.300245c1.105113,1.253029 -0.938287,3.324474 -2.417966,2.481045c-0.75106,-0.409273 -1.10517,-1.63742 -1.10517,-2.890319c0,-3.517192 -4.64661,-12.383739 -8.169689,-15.708082c-1.874477,-1.638857 -3.54144,-3.493943 -3.54144,-4.119706c0,-1.252898 -5.94099,-5.156115 -9.274803,-6.408947c-1.85623,-0.626939 -2.417966,-0.409339 -2.417966,1.252833c0,1.228147 -0.35411,1.63742 -1.10517,1.228147c-1.666907,-0.818874 -2.41791,1.036539 -0.93823,2.891625c2.0434,2.26449 1.68929,4.963004 -0.541393,3.926661c-1.500023,-0.625829 -1.687307,-0.409469 -1.125513,3.108049c0.187227,2.048 0.563777,4.746515 0.563777,5.974662c0,1.252898 0.374453,2.071772 0.748963,2.071772c0.54349,0 0.73066,-0.409469 0.354167,-1.035233c-0.187227,-0.627069 0.189323,-1.229323 0.93823,-1.229323c0.563833,0 1.10517,0.819853 1.10517,1.638596c0,0.843559 -0.730603,1.662106 -2.0434,1.445943c-1.10313,0 -2.041417,-0.602384 -2.041417,-1.011788c0,-1.879967 -5.00276,-14.67298 -6.482383,-16.551642c-1.666963,-2.048196 -0.561793,-2.673959 -13.734242,7.034711c-2.04136,1.445812 -4.272043,4.553731 -5.397556,6.818417c-0.917943,2.264359 -2.397566,4.553731 -3.146586,4.963004c-0.751003,0.409469 -3.52308,3.710302 -5.941046,7.22769c-10.400373,15.490417 -8.711083,17.345634 -7.982406,48.979725c3.14857,23.971005 3.14857,23.971005 3.14857,23.971005c-7.420669,0 -7.420669,0 -7.420669,0c-6.126233,0 -6.126233,0 -6.126233,0c0.561737,-22.11716 0.561737,-22.11716 0.561737,-22.11716c0.374453,-1.853845 0.563777,-5.588833 0.75106,-7.660604c0.187227,-1.229257 -5.210386,-6.601862 -5.023103,-7.829878c0,-1.036343 5.58484,1.855282 5.58484,0.818743c0.917887,-15.081144 0,-27.07912 -2.417966,-33.464426c-0.561737,-3.926857 -5.21033,-16.550401 -5.93895,-16.550401c-0.187283,0 -1.500023,-1.229257 -2.79242,-2.67507c-2.23074,-2.697404 -3.146586,-2.890449 -15.590416,-3.710302c-13.359676,-0.842318 -13.359676,-0.842318 -13.359676,-0.842318c-3.16693,2.890449 -3.16693,2.890449 -3.16693,2.890449c-1.854133,1.879772 -3.710306,3.107984 -4.251756,3.107984c-1.125513,0 -5.774106,4.337176 -7.795179,6.818025c-0.187227,0 -0.374453,-0.216163 -0.374453,-0.409273c-0.187283,0 -0.187283,0 -0.187283,-0.21649c-0.187227,-0.602188 -0.376493,-1.229257 -0.751003,-1.855086c1.125513,-1.036343 2.0434,-1.663282 2.41791,-1.445616c0.561737,0.409273 1.10517,0 1.10517,-1.036539c0,-1.035233 -1.10517,-1.445747 -4.064473,-1.035233c-3.54348,0.625959 -4.461366,0.842318 -5.023103,3.299788c-0.917943,1.252833 -1.10517,3.108049 -0.561737,4.553861c-0.189323,1.855086 -0.189323,3.107919 0,3.107919c0.187227,0 0.374453,-0.409273 0.936247,-0.843429c0,0.216555 0.187227,0.434155 0.376493,0.626939c-1.856173,0.625829 -2.79446,2.481045 -2.605193,4.336131c-0.93823,0.843429 -1.856173,1.252833 -2.98163,1.878661c0,0 0,-0.216359 -0.16694,-0.216359c0.73066,-1.855086 1.10517,-3.926857 1.292397,-7.034776c0.37655,-3.493943 0.187227,-5.781878 -0.374453,-5.781878c-0.37451,0 -0.751003,0.843429 -0.751003,2.07138c0.18717,1.036539 -0.16694,2.071772 -0.91596,2.264686c-0.563777,0.216359 -0.93823,-0.192914 -0.93823,-1.228147c0,-2.482155 -0.728677,-2.482155 -2.397623,-0.2176c-0.748963,0.843429 -2.228643,1.855216 -3.52104,2.289372c-1.68929,0.602188 -2.230683,0.192718 -2.981686,-2.071772c-0.561737,-1.855086 -0.936247,-3.927902 -0.561737,-4.746645c0.187227,-1.036343 0.187227,-1.878661 -0.541393,-1.878661c-2.043457,0 -0.563777,-3.301029 1.854133,-3.927968zm15.964869,-47.509227c-1.125513,-0.216359 -2.043457,-0.818743 -2.41791,-1.662172c-0.187283,-1.229257 -0.37451,-1.229257 -0.37451,0c0,0.843429 -0.751003,1.445812 -1.47968,1.662172c-1.31274,0 -1.31274,0.21649 0.187283,1.036539c0.915847,0.409273 1.854133,1.035037 2.04136,1.035037c0.166883,0 1.10517,-0.625763 2.043457,-1.035037c1.666907,-1.036539 1.666907,-1.036539 0,-1.036539zm147.18242,33.271512c0.354167,0.409469 0.728677,-0.2176 0.728677,-1.252833c0,-0.819853 -0.37451,-1.638727 -0.728677,-1.638727c-0.56372,0 -0.93823,0.409404 -0.93823,1.011657c0,0.627069 0.37451,1.470498 0.93823,1.879902zm-1.31274,1.855216c-0.187227,-0.627069 -1.10517,-1.445747 -1.856173,-1.445747c-0.541393,0 -0.915903,0.818678 -0.541393,1.445747c0.166883,0.625829 0.917887,1.035298 1.666907,1.035298c0.73066,0 0.917887,-0.409469 0.73066,-1.035298zm-1.666907,9.299135c0.561737,0 1.31274,-0.216359 1.31274,-0.409273c0,-0.434155 -0.751003,-0.843429 -1.31274,-1.252898c-0.73066,-0.409404 -1.292453,-0.192914 -1.292453,0.409469c0,0.626939 0.561793,1.252702 1.292453,1.252702zm1.47968,-19.634744c0.748963,-0.4096 1.125457,-1.036474 0.936247,-1.638857c-0.561793,-1.469192 -3.70838,-1.469192 -3.70838,0c0,1.638857 1.103187,2.264686 2.772133,1.638857zm-10.192746,-15.491854c-0.938287,0.627069 -1.500023,1.855216 -1.312853,2.482155c0.938287,1.637616 2.043513,1.228147 2.979703,-1.445812c0.917943,-2.482155 0.543433,-2.891429 -1.66685,-1.036343zm-3.54348,31.825765c4.83582,5.565323 5.023103,5.781878 5.023103,3.926792c0,-1.035233 -0.37451,-1.878661 -0.938287,-1.878661c-0.541337,0 -1.479623,-1.036539 -2.04136,-2.26449c-0.54145,-1.229453 -1.666907,-2.482351 -2.58485,-2.482351c-1.68725,0 -1.68725,0.217665 0.541393,2.69871zm-3.895606,-9.733421c1.12353,0 1.666963,-0.409273 0.936303,-0.602253c-0.561737,-0.409404 -1.47968,-0.409404 -2.041417,0c-0.563833,0.19298 0,0.602253 1.105113,0.602253zm-5.377213,-28.090777c0.561737,0.625959 2.228643,1.444702 3.708266,1.855282c2.60525,0.625763 2.792476,0.625763 1.312797,-1.036343c-1.68725,-2.048196 -6.31346,-2.673959 -5.021063,-0.818939zm-11.318316,-34.282973c-0.561737,0.602188 -0.748963,1.855086 -0.561737,2.673763c0.37451,1.662302 1.47968,0.216555 1.47968,-2.26449c0,-1.252898 -0.187283,-1.445812 -0.917943,-0.409273zm5.564496,44.618778c1.47968,1.035102 2.043457,1.035102 2.794516,-0.41058c1.479623,-2.264621 0.541337,-3.299723 -2.23074,-1.855021c-2.230683,1.012767 -2.230683,1.012767 -0.563777,2.2656zm-3.708266,-10.335805c2.79242,-2.264294 2.79242,-2.264294 0.561737,-2.264294c-1.500023,0 -2.605193,0.818547 -3.16693,2.264294c-0.354167,1.444702 -0.73066,2.264686 -0.543433,2.264686c0,0 1.47968,-1.229388 3.148626,-2.264686zm-4.084873,33.488067c1.290357,2.264686 3.521096,2.264686 2.79242,-0.21649c-0.187227,-0.819853 -0.376493,-1.855086 -0.376493,-2.072751c0,-0.192914 -0.74902,-0.192914 -1.666907,0.217665c-1.500023,0.409404 -1.500023,1.035233 -0.74902,2.071576zm-5.753763,-8.480523c1.479623,2.264621 2.230683,2.48098 3.89759,0.818874c1.10517,-1.035233 1.10517,-1.035233 0,-1.228147c-0.561737,0 -2.041417,-0.217665 -3.333813,-0.627069c-1.856173,-0.818743 -1.856173,-0.818743 -0.563777,1.036343zm-0.187227,-22.526499c0.93823,0 2.0434,-3.300833 1.47968,-4.336066c-0.728677,-1.036343 -2.2287,0.625763 -2.2287,2.48098c0,1.036408 0.37451,1.855086 0.74902,1.855086zm-9.085593,14.045911c-1.125513,0.843429 -0.93823,1.036539 0.54145,1.036539c0.93823,0 2.04136,-0.41071 2.41791,-1.036539c0.56168,-1.638531 -1.292453,-1.638531 -2.95936,0zm0.187283,18.189258c0.166883,0.217665 0.72862,-0.21649 1.292397,-1.228147c0.56168,-0.843429 2.2287,-1.879772 3.52104,-2.289241c1.666907,-0.625959 2.417966,-1.637551 2.417966,-3.108049c0,-3.492506 -2.605193,-2.45747 -5.377326,2.072816c-1.125457,2.288131 -2.04136,4.143347 -1.854077,4.552621zm-2.0434,-9.515756c1.66685,-2.264359 1.66685,-2.67507 0.354053,-3.300898c-1.479623,-0.818874 -2.582753,1.036539 -2.582753,4.336131c-0.189267,2.482155 -0.189267,2.482155 2.2287,-1.035233zm-2.979703,-24.38152c0.187227,1.662106 0.561737,1.445747 1.66685,-1.638727c1.312853,-3.299788 1.312853,-3.733943 0.187283,-3.733943c-0.72862,0 -1.47968,0.625959 -1.666907,1.662367c-0.37451,0.818678 -0.37451,2.698645 -0.187227,3.710302zm-0.917943,-16.936425c0,0.842318 0.35411,2.890449 0.73066,4.336131c0.561737,2.891559 0.561737,2.891559 1.125513,0.409404c0.72862,-2.480849 0,-6.191151 -1.125513,-6.191151c-0.543433,0 -0.73066,0.625633 -0.73066,1.445616zm-13.003526,6.817111c-0.917887,1.445812 -0.917887,2.891625 -0.189267,7.22769c0.37655,3.107984 1.314837,6.216033 1.856173,6.818417c0.938287,1.036343 1.125513,0 1.31274,-6.407837c0,-7.830074 -0.93823,-10.312033 -2.979646,-7.63827zm1.666907,21.900671c0.187283,0.409469 0.561737,-0.409404 0.37451,-1.638661c0,-1.252898 -0.187227,-1.445812 -0.561737,-0.625829c-0.16694,0.818743 -0.16694,1.855086 0.187227,2.26449zm6.69001,-19.418515c-0.187227,0.409469 -0.187227,3.301029 0.37451,6.407837c0.563777,5.373715 0.73066,5.590074 0.917943,1.663282c0.187227,-6.408947 -0.187283,-9.516866 -1.292453,-8.071119zm-6.3155,58.279056c1.125513,-2.482155 2.979703,-6.625502 4.2721,-9.107462c1.479623,-2.674155 2.41791,-6.191347 2.79242,-9.708735c0.543433,-5.565519 0.543433,-5.565519 0.543433,-5.565519c-2.230683,3.084474 -2.230683,3.084474 -2.230683,3.084474c-1.10517,1.662302 -1.85419,3.517388 -1.85419,4.143347c0,1.638596 -3.52308,11.974205 -4.62825,13.829421c-0.561737,1.035037 -1.500023,3.324474 -1.666907,4.963004c-0.938287,4.745666 0.73066,3.926792 2.772076,-1.638531zm-13.172449,21.273601c0.563777,4.119576 0.563777,4.119576 2.417966,-4.74671c1.10517,-4.770351 2.772076,-12.407184 3.89759,-17.15396c1.479623,-5.998433 2.0434,-10.961437 2.0434,-17.972572c0,-9.106547 -0.189267,-9.299462 -1.66889,-8.262923c-3.354213,2.673894 -5.210386,10.117943 -5.959406,24.573128c-0.35411,7.445486 -0.73066,14.889536 -1.105113,16.528262c-0.187283,1.662172 0,4.770221 0.374453,7.034776zm0.37655,-52.883007c0.72862,2.048131 1.47968,3.710302 1.47968,3.710302c0.187227,0 1.103073,-1.252898 1.854133,-2.891429c0.93823,-1.444637 2.41791,-3.106808 2.979703,-3.709192c2.210283,-1.879772 2.77202,-7.661649 0.917887,-11.588441c-1.47968,-3.517388 -5.564496,-7.445356 -6.315556,-6.192457c-0.374453,0.409404 -0.915847,4.337372 -1.292397,8.889992c-0.748963,6.818221 -0.748963,8.890907 0.37655,11.781225zm-1.125513,-47.317292c0.37451,0.41058 0.748963,0.192914 0.748963,-0.432849c0,-0.819984 -0.374453,-1.638857 -0.748963,-2.048196c-0.563777,-0.43409 -0.917943,-0.21649 -0.917943,0.602384c0,0.625829 0.354167,1.445812 0.917943,1.878661zm-60.128769,55.55664c2.584793,0.2176 2.584793,0.2176 2.584793,0.2176c2.605193,0 5.210386,-2.67507 5.210386,-4.963004c0,-1.445812 -0.187227,-1.445812 -7.795179,4.745404zm1.10517,-5.781943c0,0.627265 0.37451,1.252898 0.938287,1.252898c0.915903,0 3.52104,-3.710302 2.959303,-4.336066c-0.563777,-0.843429 -3.89759,1.855021 -3.89759,3.083168zm2.0434,-14.238629c2.792476,4.120686 4.084873,4.53009 5.564496,1.855021c1.500023,-2.480849 0.187283,-4.143151 -4.274083,-4.745535c-3.708323,-0.627069 -3.708323,-0.627069 -1.290413,2.890514zm-2.0434,-11.587397c0,0.432849 1.31274,1.444506 2.79242,2.287935c6.85695,3.926857 8.169689,3.926857 7.982406,0.19311c0,-2.264686 -2.79242,-7.227821 -3.89759,-7.227821c-1.31274,0 -6.877236,3.926792 -6.877236,4.746776zm10.025863,29.34361c2.041417,0 2.228643,-0.625959 0.561737,-1.637616c-0.751003,-0.2176 -1.47968,0 -1.666907,0.602384c-0.37655,0.625633 0.187227,1.035233 1.10517,1.035233zm1.47968,-48.545635c-1.292453,-1.036474 -2.9614,-1.445747 -3.710363,-1.036474c-1.292397,0.819984 -1.10517,1.036474 0.748963,1.662106c0.917943,0.41071 2.794516,0.820049 3.710363,1.012963c1.10517,0 1.10517,-0.41058 -0.748963,-1.638596zm-0.166883,7.444049c1.103073,0 1.292397,-0.21649 0.541393,-0.842318c-0.541393,-0.192784 -1.292453,-0.192784 -1.666963,0.216555c-0.187227,0.409273 0.37451,0.818874 1.12557,0.625763zm1.103073,4.746841c-2.605136,0 -2.605136,0.192718 -1.103073,1.855021c1.854133,1.855086 2.395526,2.071445 3.146586,0.818743c1.29234,-1.637616 0.374453,-2.673763 -2.043513,-2.673763zm3.71042,-23.345373c-0.75106,-1.036343 -0.938287,0.818874 -0.561793,3.083363c0.187227,1.445812 0.936247,2.698514 1.312797,2.698514c0.72862,0 0.187227,-4.553731 -0.751003,-5.781878zm5.93895,27.271838c-0.374453,0.19311 0.563777,1.445812 1.668947,2.482286c1.125513,1.035233 2.04136,1.444572 2.04136,0.818743c0,-1.445616 -3.14653,-4.144261 -3.710306,-3.301029zm-4.64661,1.445812c-1.666907,1.445943 -0.72862,5.156049 1.687307,5.782008c1.292397,0.409339 3.335853,2.071641 4.62825,3.710172c1.125513,1.662302 2.04136,2.289372 2.04136,1.662302c0,-2.071576 -7.418629,-11.997911 -8.356916,-11.154482zm7.607953,17.154156c-1.105113,-3.325714 -2.397566,-4.963331 -4.815533,-5.999674c-1.854133,-0.818743 -3.710306,-1.252702 -4.272043,-1.035102c-0.563777,0.216359 1.666907,2.890319 4.835876,5.998302c5.93895,5.372604 5.93895,5.372604 4.2517,1.036474zm9.856939,-31.825896c-0.37451,0 -0.75106,0.818874 -0.75106,1.637616c0,1.036343 0.37655,1.662302 0.75106,1.662302c0.541393,0 0.917943,-0.625959 0.917943,-1.662302c0,-0.818743 -0.37655,-1.637616 -0.917943,-1.637616zm-1.68725,16.936425c0,1.445616 3.16693,0.409404 4.459326,-1.445812c1.85419,-3.107919 1.666907,-3.926792 -0.751003,-3.926792c-1.666907,0 -3.708323,2.89169 -3.708323,5.372604zm5.397613,-44.618974c-0.563777,2.673959 -0.938287,4.938449 -0.751003,5.156115c0.56372,0.818874 2.043457,-5.372474 2.043457,-7.854629c0,-1.035233 -0.563833,0.217665 -1.292453,2.698514zm9.649369,41.727349c-0.938287,0 -1.666963,0.41071 -1.666963,1.229257c0,0.625959 0.541393,1.036539 1.10313,1.036539c0.751003,0 1.47968,-0.41058 1.668947,-1.036539c0.37451,-0.818547 -0.189267,-1.229257 -1.105113,-1.229257zm-2.23074,38.8369c1.10517,3.735053 2.772076,7.22769 3.710363,8.071119c0.938287,0.625959 2.79242,3.517519 3.89759,6.408947c1.10517,2.890449 2.230683,5.155004 2.417966,5.155004c0.915847,0 -0.938287,-19.008001 -2.230683,-24.790989c-1.12557,-4.961894 -1.479737,-9.515756 -1.292453,-16.743446c0.166883,-5.372474 0,-10.11925 -0.374453,-10.528588c-0.187283,-0.409404 -1.47968,-0.409404 -2.605193,0c-2.043457,0.818743 -2.230683,1.445812 -2.230683,5.999543c0,3.492702 -0.374567,5.372604 -1.292453,6.191151c-2.605136,1.855282 -2.41791,12.383805 0,20.237258zm-5.377213,-27.681242c-0.37451,-3.107984 -0.748963,-3.517388 -2.79242,-3.517388c-2.417966,0 -2.417966,0.21649 -2.230683,4.552621c0,2.67507 0.376493,5.782988 0.56372,7.227625c0.187283,1.445812 0.917943,2.891429 1.666963,3.107984c1.479623,1.036474 3.14653,-6.191151 2.79242,-11.370841zm-2.79242,20.863022c-1.666963,-2.481045 -2.79242,-5.155004 -2.95936,-5.781878c0,-0.818743 -0.93823,-2.890319 -2.041417,-4.745535c-1.125513,-1.855086 -2.41791,-4.144327 -2.981686,-4.9632c-1.854133,-2.891429 -1.47968,-0.409273 0.563777,5.998433c1.292397,4.337176 3.521096,8.264033 6.126233,11.564866c4.815476,5.588964 5.37727,4.552817 1.292453,-2.072686zm-2.95936,10.142694c2.021073,0 1.85419,-0.216359 -0.93823,-3.517192c-1.85419,-2.071772 -3.146586,-4.336261 -3.146586,-5.37267c0,-0.818678 -2.417966,-3.733878 -5.21033,-6.407837c-2.772133,-2.698449 -5.377326,-5.372408 -5.75178,-6.192262c-0.37655,-1.035233 -0.563777,-1.035233 -0.563777,0.192914c0,1.252898 -0.915903,1.445616 -3.89759,0.818743c-2.041417,-0.409469 -3.708323,-0.409469 -3.708323,-0.191804c0,0.409404 0.748963,2.890449 1.500023,5.372408c1.292453,4.119772 1.854133,4.963331 5.939006,6.600817c2.58485,1.036343 6.66961,3.517323 9.274803,5.372408c2.417966,1.879967 5.37727,3.324474 6.502783,3.324474zm-28.970378,7.011135c0.751003,0 1.856173,-0.409273 2.605136,-1.036147c1.292453,-1.444702 0.189323,-1.444702 -2.228643,0c-1.10517,0.626874 -1.292397,0.819788 -0.376493,1.036147zm-2.041417,-5.156049c1.85419,-0.842188 7.795179,-1.662172 13.192792,-1.662172c10.190763,-0.192914 12.234162,-0.818547 8.149289,-2.071576c-1.29234,-0.409273 -4.2517,-1.445812 -6.66961,-2.481045c-4.2721,-1.855086 -13.005566,-1.229257 -13.921469,0.842514c-0.189267,0.410384 -1.125513,0.626874 -2.0434,0.410384c-1.85419,-0.626939 -3.710363,1.035363 -4.2721,4.336261c-0.751003,2.673763 0.561737,2.891429 5.564496,0.625633zm-14.839356,4.746776c0.37451,1.662302 2.230683,1.855086 3.710363,0.409273c0.915847,-0.818678 0.915847,-1.227951 0,-2.480849c-0.751003,-1.229453 -1.292397,-1.229453 -2.41791,-0.192914c-0.751003,0.602384 -1.292453,1.637616 -1.292453,2.26449zm-5.939006,14.45538c0.728677,0 1.103187,0.625959 0.728677,1.855216c-0.16694,0.843429 -0.728677,1.662172 -1.10517,1.662172c-0.561737,0 -0.915903,-0.818743 -0.915903,-1.662172c0,-1.011657 0.541393,-1.855216 1.292397,-1.855216z" stroke-opacity="null" stroke-width="1.5" stroke="#000" fill="#1F361B"/>
 </g>
</svg>
